# xmcd CD database file
#
# Track frame offsets:
#	150
#	11202
#	23157
#	36287
#	54717
#	66807
#	82772
#	97779
#	109095
#	116270
#	129042
#	139322
#	153997
#	170902
#	183245
#	212880
#	254800
#	268095
#	296535
#	318770
#
# Disc length: 4650 seconds
#
# Revision: 1
# Processed by: cddbd v1.5.1PL0 Copyright (c) Steve Scherf et al.
# Submitted via: CDex 1.51
#
DISCID=19122814
DTITLE=Bintangs - I'm On My Own Again CD 1
DYEAR=2001
DGENRE=Blues
TTITLE0=I'm On My Own Again
TTITLE1=Down South Blues
TTITLE2=Travellin' In The USA
TTITLE3=Hound Is On The Run
TTITLE4=Ridin' On The L&N
TTITLE5=In The Past
TTITLE6=It's All Over Now
TTITLE7=Little By Little
TTITLE8=Agnus Grey
TTITLE9=Rock It Little Bastard
TTITLE10=Smokestack Lightning
TTITLE11=The Bride
TTITLE12=The Dying Of Mr. Fernandez
TTITLE13=He Didn't Wanna Go Home
TTITLE14=Is A Blue Bird Blue ?
TTITLE15=I'm Gonna Let You Down
TTITLE16=Mona Lisa
TTITLE17=St. Louis Blues
TTITLE18=Too Much
TTITLE19=Well Then It's Alright
EXTD=YEAR: 2001
EXTT0=
EXTT1=
EXTT2=
EXTT3=
EXTT4=
EXTT5=
EXTT6=
EXTT7=
EXTT8=
EXTT9=
EXTT10=
EXTT11=
EXTT12=
EXTT13=
EXTT14=
EXTT15=
EXTT16=
EXTT17=
EXTT18=
EXTT19=
PLAYORDER=
